<?xml version="1.0" encoding="UTF-8"?>
<svg id="Layer_2" data-name="Layer 2" xmlns="http://www.w3.org/2000/svg" viewBox="0 0 1071.93 420.88">
  <defs>
    <style>
      .cls-1 {
        fill: #ff5b23;
      }
    </style>
  </defs>
  <g id="Layer_1-2" data-name="Layer 1">
    <g>
      <g>
        <g>
          <path class="cls-1" d="m588.8,231.49c0,21.36-10.49,42.5-28.79,58-18.25,15.47-42.15,23.98-67.32,23.98-62.86,0-101.92-40.96-101.92-106.9,0-7.03.45-14.58,1.32-22.44l.86-7.81,40.44-10.36-2.54,16.97c-.18,1.21-.36,2.34-.55,3.46-1.02,6.37-1.82,11.39-1.82,27.25,0,50.71,34.02,68.77,65.86,68.77,29.11,0,59.23-18.57,59.23-49.67s-45.86-50.36-76.2-64.15c-4.41-2-8.57-3.9-12.41-5.72-5.68-2.75-11.35-5.24-16.83-7.66-30.45-13.41-61.93-27.28-61.93-73.23,0-21.43,9.63-42.48,26.41-57.74C429.82,8.61,453.09,0,478.16,0,541.02,0,580.07,40.96,580.07,106.9c0,7.03-.44,14.58-1.31,22.44l-.85,7.62-41.46,11.69,3.64-18.23c1.01-5.02,2.69-13.43,2.69-33.07,0-23.87-6.46-41.46-19.2-52.28-10.94-9.29-26.64-14.01-46.68-14.01-32.66,0-55.49,20.42-55.49,49.67s44.98,50.3,77.84,65.35c4.4,2.02,8.56,3.92,12.44,5.77,5.1,2.43,10.34,4.71,15.4,6.91,15.43,6.71,30,13.05,41.47,23.51,13.6,12.41,20.22,28.5,20.22,49.21Z"/>
          <path class="cls-1" d="m825.28,300.23l2.21,13.25h-42.85l.61-11.97c.39-7.63-.13-30.4-.68-54.51-.46-20.11-.97-42.39-1.03-59.78h-130.01c-.07,17.51-.58,40.03-1.04,60.36-.55,24.03-1.06,46.72-.68,53.89l.65,12h-42.89l2.21-13.25c2.74-16.43,6.49-97.15,6.49-130.2v-26.59c0-33.03-3.75-113.76-6.49-130.2L609.58,0h42.69l-.45,11.81c-.47,12.45.17,43.76.78,74.04.46,22.48.89,43.73.89,57.59v12.71h130.08v-12.71c0-14.03.44-36.08.9-59.42.61-30.36,1.23-61.75.77-72.15L784.72,0h42.77l-2.21,13.25c-2.74,16.43-6.49,97.16-6.49,130.2v26.59c0,33.04,3.75,113.76,6.49,130.2Z"/>
          <path class="cls-1" d="m1023.47,180.24h48.45l-2.23,13.26c-5.94,35.43-18.97,65.17-37.69,86.03-19.93,22.2-45.82,33.94-74.87,33.94-33.06,0-62.66-14.89-83.38-41.94-21.64-28.26-33.08-68.82-33.08-117.28s11.2-88.31,33.28-115.52C894.53,13.39,923.28,0,957.14,0,986.43,0,1012.21,10.54,1031.68,30.48c19.28,19.73,32.06,47.75,38.02,83.26l2.23,13.26h-44.97l1.08-12.37c.67-7.72.04-23.87-4.51-34.36l-.12-.3c-7.31-18.26-25.63-48.91-66.27-48.91-24.27,0-43.66,10.74-57.62,31.94-14.36,21.81-21.95,53.35-21.95,91.24s8.77,72.15,25.36,95.96c14.47,20.77,33.72,32.19,54.2,32.19,28.01,0,46.92-15.03,65.22-51.88,5.46-13.35,6.69-31.61,5.71-35.56l-4.6-14.72Z"/>
        </g>
        <g>
          <path d="m403.47,420.88c-3.91,0-7.36-.77-10.36-2.3-3-1.53-5.36-3.65-7.09-6.35-1.73-2.7-2.7-5.76-2.9-9.17l5.27-.37c.35,3.96,1.84,7.15,4.49,9.58,2.65,2.43,6.23,3.64,10.73,3.64,3.91,0,7.03-.83,9.36-2.49,2.33-1.66,3.49-4.02,3.49-7.09,0-1.73-.4-3.27-1.19-4.6-.79-1.34-2.33-2.57-4.6-3.71-2.28-1.14-5.6-2.23-9.95-3.27-4.01-.99-7.22-2.08-9.62-3.27-2.4-1.19-4.15-2.66-5.24-4.42-1.09-1.76-1.63-3.97-1.63-6.65,0-2.82.69-5.33,2.08-7.54,1.39-2.2,3.38-3.94,5.98-5.2,2.6-1.26,5.71-1.89,9.32-1.89,3.86,0,7.15.76,9.88,2.27,2.72,1.51,4.85,3.52,6.39,6.02,1.53,2.5,2.43,5.26,2.67,8.28l-5.27.37c-.3-3.37-1.6-6.2-3.9-8.5s-5.61-3.45-9.91-3.45c-3.71,0-6.64.88-8.76,2.64-2.13,1.76-3.19,4.05-3.19,6.87,0,1.83.4,3.33,1.19,4.49.79,1.16,2.2,2.18,4.23,3.04,2.03.87,4.93,1.75,8.69,2.64,4.65,1.09,8.29,2.38,10.92,3.86,2.62,1.49,4.49,3.21,5.61,5.16,1.11,1.96,1.67,4.17,1.67,6.65,0,3.02-.81,5.63-2.41,7.84-1.61,2.2-3.79,3.91-6.54,5.12-2.75,1.21-5.88,1.82-9.39,1.82Z"/>
          <path d="m432.33,419.69l19.23-52.73h6.68l19.16,52.73h-5.5l-5.64-15.82h-22.8l-5.64,15.82h-5.5Zm12.85-20.72h19.38l-9.65-27.48-9.73,27.48Z"/>
          <path d="m491.03,419.69v-52.73h32.45v4.9h-27.4v19.46h26.07v4.83h-26.07v23.54h-5.05Z"/>
          <path d="m538.12,419.69v-52.73h32.45v4.9h-27.4v19.01h26.51v4.83h-26.51v19.09h28v4.9h-33.05Z"/>
          <path d="m615.58,419.69v-52.73h5.05v23.62h28.07v-23.62h5.05v52.73h-5.05v-24.21h-28.07v24.21h-5.05Z"/>
          <path d="m672.21,419.69v-52.73h32.45v4.9h-27.4v19.01h26.51v4.83h-26.51v19.09h28v4.9h-33.05Z"/>
          <path d="m720.07,419.69v-52.73h19.31c5.59,0,9.98,1.4,13.14,4.2,3.17,2.8,4.75,6.62,4.75,11.47,0,3.17-.92,5.86-2.75,8.06-1.83,2.2-4.06,3.68-6.68,4.42,5.1.79,7.9,3.94,8.39,9.43l1.34,15.15h-5.12l-1.26-14.7c-.2-2.47-1.08-4.28-2.64-5.42-1.56-1.14-4.02-1.71-7.39-1.71h-16.04v21.83h-5.05Zm5.05-26.74h15.08c3.61,0,6.47-.9,8.58-2.71,2.1-1.81,3.16-4.37,3.16-7.69s-1.07-6.11-3.19-7.95c-2.13-1.83-5.27-2.75-9.43-2.75h-14.18v21.09Z"/>
          <path d="m822.11,420.88c-4.65,0-8.71-1.1-12.18-3.3-3.47-2.2-6.16-5.36-8.09-9.47-1.93-4.11-2.9-9.01-2.9-14.7s.97-10.61,2.9-14.74c1.93-4.13,4.63-7.31,8.09-9.54,3.47-2.23,7.53-3.34,12.18-3.34,6.14,0,10.95,1.63,14.44,4.9,3.49,3.27,5.78,7.65,6.87,13.14l-5.35.37c-.74-4.11-2.44-7.38-5.09-9.8-2.65-2.43-6.28-3.64-10.88-3.64-3.61,0-6.76.9-9.43,2.71-2.67,1.81-4.75,4.41-6.24,7.8-1.49,3.39-2.23,7.44-2.23,12.14s.74,8.74,2.23,12.11c1.49,3.37,3.56,5.94,6.24,7.72,2.67,1.78,5.82,2.67,9.43,2.67,4.8,0,8.58-1.3,11.33-3.9s4.44-6.18,5.09-10.73l5.35.37c-.94,5.79-3.27,10.45-6.98,13.96-3.71,3.52-8.64,5.27-14.78,5.27Z"/>
          <path d="m858.75,419.69v-52.73h5.05v47.83h27.03v4.9h-32.08Z"/>
          <path d="m905.29,419.69v-52.73h5.05v52.73h-5.05Z"/>
          <path d="m928.81,419.69v-52.73h7.2l28.29,47.75v-47.75h5.05v52.73h-7.5l-28-47.16v47.16h-5.05Z"/>
          <path d="m987.78,419.69v-52.73h5.05v52.73h-5.05Z"/>
          <path d="m1031.84,420.88c-4.65,0-8.71-1.1-12.18-3.3-3.47-2.2-6.16-5.36-8.09-9.47-1.93-4.11-2.9-9.01-2.9-14.7s.97-10.61,2.9-14.74c1.93-4.13,4.63-7.31,8.09-9.54,3.47-2.23,7.53-3.34,12.18-3.34,6.14,0,10.95,1.63,14.44,4.9,3.49,3.27,5.78,7.65,6.87,13.14l-5.35.37c-.74-4.11-2.44-7.38-5.09-9.8-2.65-2.43-6.28-3.64-10.88-3.64-3.61,0-6.76.9-9.43,2.71-2.67,1.81-4.75,4.41-6.24,7.8-1.49,3.39-2.23,7.44-2.23,12.14s.74,8.74,2.23,12.11c1.49,3.37,3.56,5.94,6.24,7.72,2.67,1.78,5.82,2.67,9.43,2.67,4.8,0,8.58-1.3,11.33-3.9,2.75-2.6,4.44-6.18,5.09-10.73l5.35.37c-.94,5.79-3.27,10.45-6.98,13.96-3.71,3.52-8.64,5.27-14.78,5.27Z"/>
        </g>
      </g>
      <g>
        <path class="cls-1" d="m100.88,328.93l.67-33.87,5.02.58c3.19.37,12.76.15,22.89-.08,7.73-.18,16.22-.37,23.2-.33.31-10.96.49-20.75.49-28.25v-28.27c0-35.14-3.99-120.97-6.9-138.45l-2.35-14.09h45.57s-.65,12.72-.65,12.72c-.41,8.11.14,32.33.72,57.96.49,21.39,1.03,45.08,1.1,63.57h.14s0,33.04,0,33.04h-.17v13.51c0,7.81-.13,17.97-.32,29.42,2.46.15,5.01.29,7.59.44,12.73.73,25.91,1.48,30.27,1.21l5-.31-.68,33.8-5.53-1.86c-4.72-1.58-22.22-3.8-37.19-5.12-.03,1.86-.06,3.73-.1,5.6-.65,32.28-1.31,65.67-.81,76.72l.56,12.63h-45.48s2.35-14.09,2.35-14.09c1.79-10.75,3.99-47.33,5.41-82.09-16.04.48-39.53,2.3-45.18,3.95l-5.6,1.64Z"/>
        <path class="cls-1" d="m0,123.84C0,88.68,15.84,57.2,44.6,35.18,74.65,12.17,117.78,0,169.32,0c52.58,0,93.9,11.91,122.84,35.39,26.95,21.87,41.19,52.45,41.19,88.45,0,31.15-11.21,58.56-32.41,79.26-20.99,20.5-50.77,34.1-88.54,40.43l-6.41,2.39v-47.82s5.46,1.13,5.46,1.13c8.21.71,25.38.04,36.53-4.79l.32-.13c19.42-7.77,52.01-27.25,52.01-70.47,0-25.81-11.42-46.42-33.97-61.27-23.19-15.27-56.74-23.34-97.02-23.34-41.44,0-76.73,9.33-102.05,26.97-22.08,15.39-34.23,35.85-34.23,57.64,0,29.79,15.98,49.89,55.17,69.35,14.2,5.81,33.61,7.12,37.82,6.08l9.67-4.9v51.52s-8.12-2.36-8.12-2.36c-37.68-6.32-69.31-20.17-91.48-40.07C12.48,182.26,0,154.73,0,123.84Z"/>
      </g>
    </g>
  </g>
</svg>