<?xml version="1.0" encoding="UTF-8"?>
<svg id="Layer_2" data-name="Layer 2" xmlns="http://www.w3.org/2000/svg" viewBox="0 0 423.24 532.72">
  <g id="Layer_1-2" data-name="Layer 1">
    <g>
      <path d="m128.59,417.81l.77-43.01,6.37.73c4.06.46,16.21.16,29.06-.16,9.81-.24,20.59-.51,29.45-.48.37-13.91.57-26.35.56-35.87l-.07-35.9c-.09-44.61-5.36-153.59-9.1-175.77l-3.02-17.88,57.86-.11-.8,16.16c-.5,10.3.25,41.05,1.05,73.59.68,27.16,1.42,57.23,1.55,80.71h.17s.08,41.95.08,41.95h-.22s.03,17.16.03,17.16c.02,9.92-.12,22.81-.34,37.36,3.12.18,6.36.36,9.64.53,16.17.9,32.9,1.82,38.44,1.46l6.35-.41-.78,42.91-7.02-2.34c-6-2-28.22-4.77-47.24-6.4-.04,2.36-.07,4.73-.12,7.11-.74,40.99-1.5,83.38-.85,97.41l.74,16.04-57.75.11,2.95-17.89c2.25-13.65,4.95-60.1,6.67-104.24-20.36.64-50.19,3.02-57.36,5.12l-7.11,2.09Z"/>
      <path d="m0,157.65c-.09-44.63,19.95-84.64,56.41-112.68C94.52,15.68,149.24.13,214.68,0c66.76-.13,119.26,14.89,156.05,44.63,34.27,27.71,52.42,66.5,52.51,112.21.08,39.55-14.09,74.38-40.96,100.72-26.59,26.08-64.38,43.42-112.32,51.55l-8.13,3.05-.12-60.72,6.93,1.42c10.42.88,32.23-.01,46.37-6.17l.41-.16c24.64-9.91,65.97-34.73,65.86-89.6-.06-32.77-14.62-58.92-43.28-77.71-29.48-19.34-72.09-29.5-123.24-29.4-52.61.1-97.4,12.03-129.5,34.49-28,19.59-43.38,45.61-43.32,73.27.07,37.82,20.42,63.31,70.22,87.92,18.04,7.34,42.69,8.95,48.03,7.62l12.27-6.25.13,65.42-10.32-2.98c-47.86-7.93-88.05-25.44-116.26-50.66C15.99,231.8.08,196.87,0,157.65Z"/>
    </g>
  </g>
</svg>