<?xml version="1.0" encoding="UTF-8"?>
<svg id="Layer_2" data-name="Layer 2" xmlns="http://www.w3.org/2000/svg" viewBox="0 0 458.51 779.98">
  <defs>
    <style>
      .cls-1 {
        fill: #fff;
      }
    </style>
  </defs>
  <g id="Layer_1-2" data-name="Layer 1">
    <g>
      <g>
        <path class="cls-1" d="m146.23,665.07l.77-43.01,6.37.73c4.06.46,16.21.16,29.06-.16,9.81-.24,20.59-.51,29.45-.48.37-13.91.57-26.35.56-35.87l-.07-35.9c-.09-44.61-5.36-153.59-9.1-175.77l-3.02-17.88,57.86-.11-.8,16.16c-.5,10.3.25,41.05,1.05,73.59.68,27.16,1.42,57.23,1.55,80.71h.17s.08,41.95.08,41.95h-.22s.03,17.16.03,17.16c.02,9.92-.12,22.81-.34,37.36,3.12.18,6.36.36,9.64.53,16.17.9,32.9,1.82,38.44,1.46l6.35-.41-.78,42.91-7.02-2.34c-6-2-28.22-4.77-47.24-6.4-.04,2.36-.07,4.73-.12,7.11-.74,40.99-1.5,83.38-.85,97.41l.74,16.04-57.75.11,2.95-17.89c2.25-13.65,4.95-60.1,6.67-104.24-20.36.64-50.19,3.02-57.36,5.12l-7.11,2.09Z"/>
        <path class="cls-1" d="m17.63,404.91c-.09-44.63,19.95-84.64,56.41-112.68,38.1-29.29,92.83-44.84,158.27-44.97,66.76-.13,119.26,14.89,156.05,44.63,34.27,27.71,52.42,66.5,52.51,112.21.08,39.55-14.09,74.38-40.96,100.72-26.59,26.08-64.38,43.42-112.32,51.55l-8.13,3.05-.12-60.72,6.93,1.42c10.42.88,32.23-.01,46.37-6.17l.41-.16c24.64-9.91,65.97-34.73,65.86-89.6-.06-32.77-14.62-58.92-43.28-77.71-29.48-19.34-72.09-29.5-123.24-29.4-52.61.1-97.4,12.03-129.5,34.49-28,19.59-43.38,45.61-43.32,73.27.07,37.82,20.42,63.31,70.22,87.92,18.04,7.34,42.69,8.95,48.03,7.62l12.27-6.25.13,65.42-10.32-2.98c-47.86-7.93-88.05-25.44-116.26-50.66-30.03-26.85-45.94-61.78-46.02-101Z"/>
      </g>
      <g>
        <g>
          <path class="cls-1" d="m25.03,67.46c-4.79,0-9.02-.94-12.68-2.82-3.67-1.88-6.56-4.47-8.68-7.77-2.12-3.3-3.3-7.05-3.55-11.23l6.46-.45c.42,4.85,2.26,8.76,5.5,11.73,3.24,2.97,7.62,4.46,13.14,4.46,4.79,0,8.61-1.01,11.46-3.05,2.85-2.03,4.27-4.92,4.27-8.68,0-2.12-.49-4-1.45-5.64-.97-1.64-2.85-3.15-5.64-4.55-2.79-1.39-6.85-2.73-12.18-4-4.91-1.21-8.83-2.55-11.77-4-2.94-1.45-5.08-3.26-6.41-5.41-1.33-2.15-2-4.86-2-8.14,0-3.45.85-6.53,2.55-9.23,1.7-2.7,4.14-4.82,7.32-6.36,3.18-1.55,6.98-2.32,11.41-2.32,4.73,0,8.76.92,12.09,2.77,3.33,1.85,5.94,4.3,7.82,7.36,1.88,3.06,2.97,6.44,3.27,10.14l-6.46.45c-.36-4.12-1.95-7.59-4.77-10.41s-6.86-4.23-12.14-4.23c-4.55,0-8.12,1.08-10.73,3.23-2.61,2.15-3.91,4.95-3.91,8.41,0,2.24.48,4.08,1.45,5.5.97,1.42,2.7,2.67,5.18,3.73,2.48,1.06,6.03,2.14,10.64,3.23,5.7,1.33,10.15,2.91,13.36,4.73,3.21,1.82,5.5,3.92,6.86,6.32,1.36,2.4,2.05,5.11,2.05,8.14,0,3.7-.99,6.9-2.95,9.59-1.97,2.7-4.64,4.79-8,6.27s-7.2,2.23-11.5,2.23Z"/>
          <path class="cls-1" d="m60.35,66L83.9,1.45h8.18l23.46,64.55h-6.73l-6.91-19.36h-27.91l-6.91,19.36h-6.73Zm15.73-25.37h23.73l-11.82-33.64-11.91,33.64Z"/>
          <path class="cls-1" d="m132.22,66V1.45h39.73v6h-33.55v23.82h31.91v5.91h-31.91v28.82h-6.18Z"/>
          <path class="cls-1" d="m189.87,66V1.45h39.73v6h-33.55v23.27h32.46v5.91h-32.46v23.36h34.27v6h-40.46Z"/>
          <path class="cls-1" d="m284.69,66V1.45h6.18v28.91h34.37V1.45h6.18v64.55h-6.18v-29.64h-34.37v29.64h-6.18Z"/>
          <path class="cls-1" d="m354.02,66V1.45h39.73v6h-33.55v23.27h32.46v5.91h-32.46v23.36h34.27v6h-40.46Z"/>
          <path class="cls-1" d="m412.6,66V1.45h23.64c6.85,0,12.21,1.71,16.09,5.14,3.88,3.43,5.82,8.11,5.82,14.05,0,3.88-1.12,7.17-3.36,9.86-2.24,2.7-4.97,4.5-8.18,5.41,6.24.97,9.67,4.82,10.27,11.55l1.64,18.55h-6.27l-1.55-18c-.24-3.03-1.32-5.24-3.23-6.64-1.91-1.39-4.92-2.09-9.05-2.09h-19.64v26.73h-6.18Zm6.18-32.73h18.46c4.42,0,7.92-1.11,10.5-3.32,2.58-2.21,3.86-5.35,3.86-9.41s-1.3-7.48-3.91-9.73c-2.61-2.24-6.45-3.36-11.55-3.36h-17.36v25.82Z"/>
        </g>
        <path class="cls-1" d="m41.68,194.61c-8.37,0-15.68-1.98-21.91-5.94-6.23-3.96-11.09-9.64-14.56-17.03-3.47-7.39-5.21-16.21-5.21-26.45s1.74-19.08,5.21-26.52c3.47-7.43,8.33-13.16,14.56-17.17,6.23-4.01,13.54-6.01,21.91-6.01,11.04,0,19.7,2.94,25.98,8.82,6.28,5.88,10.4,13.76,12.36,23.64l-9.62.67c-1.34-7.39-4.39-13.27-9.15-17.63-4.76-4.36-11.29-6.55-19.57-6.55-6.5,0-12.16,1.63-16.97,4.88-4.81,3.25-8.55,7.93-11.22,14.03-2.67,6.1-4.01,13.38-4.01,21.84s1.34,15.72,4.01,21.77c2.67,6.06,6.41,10.69,11.22,13.89,4.81,3.21,10.46,4.81,16.97,4.81,8.64,0,15.43-2.34,20.37-7.01,4.94-4.68,7.99-11.11,9.15-19.3l9.62.67c-1.69,10.42-5.88,18.79-12.56,25.11-6.68,6.32-15.54,9.48-26.58,9.48Z"/>
        <path class="cls-1" d="m107.59,192.47v-94.85h9.08v86.03h48.62v8.82h-57.71Z"/>
        <path class="cls-1" d="m191.32,192.47v-94.85h9.08v94.85h-9.08Z"/>
        <path class="cls-1" d="m233.61,192.47v-94.85h12.96l50.9,85.89v-85.89h9.08v94.85h-13.49l-50.36-84.83v84.83h-9.08Z"/>
        <path class="cls-1" d="m339.69,192.47v-94.85h9.08v94.85h-9.08Z"/>
        <path class="cls-1" d="m418.94,194.61c-8.37,0-15.68-1.98-21.91-5.94-6.23-3.96-11.09-9.64-14.56-17.03-3.47-7.39-5.21-16.21-5.21-26.45s1.74-19.08,5.21-26.52c3.47-7.43,8.33-13.16,14.56-17.17,6.23-4.01,13.54-6.01,21.91-6.01,11.04,0,19.7,2.94,25.98,8.82,6.28,5.88,10.4,13.76,12.36,23.64l-9.62.67c-1.34-7.39-4.39-13.27-9.15-17.63-4.76-4.36-11.29-6.55-19.57-6.55-6.5,0-12.16,1.63-16.97,4.88-4.81,3.25-8.55,7.93-11.22,14.03-2.67,6.1-4.01,13.38-4.01,21.84s1.34,15.72,4.01,21.77c2.67,6.06,6.41,10.69,11.22,13.89,4.81,3.21,10.46,4.81,16.97,4.81,8.64,0,15.43-2.34,20.37-7.01,4.94-4.68,7.99-11.11,9.15-19.3l9.62.67c-1.69,10.42-5.88,18.79-12.56,25.11-6.68,6.32-15.54,9.48-26.58,9.48Z"/>
      </g>
    </g>
  </g>
</svg>