<?xml version="1.0" encoding="UTF-8"?>
<svg id="Layer_2" data-name="Layer 2" xmlns="http://www.w3.org/2000/svg" viewBox="0 0 1064.53 419.52">
  <defs>
    <style>
      .cls-1 {
        fill: #fff;
      }
    </style>
  </defs>
  <g id="Layer_1-2" data-name="Layer 1">
    <g>
      <g>
        <path class="cls-1" d="m581.41,284.52c0,21.36-10.49,42.5-28.79,58-18.25,15.47-42.15,23.98-67.32,23.98-62.86,0-101.92-40.96-101.92-106.9,0-7.03.45-14.58,1.32-22.44l.86-7.81,40.44-10.36-2.54,16.97c-.18,1.21-.36,2.34-.55,3.46-1.02,6.37-1.82,11.39-1.82,27.25,0,50.71,34.02,68.77,65.86,68.77,29.11,0,59.23-18.57,59.23-49.67s-45.86-50.36-76.2-64.15c-4.41-2-8.57-3.9-12.41-5.72-5.68-2.75-11.35-5.24-16.83-7.66-30.45-13.41-61.93-27.28-61.93-73.23,0-21.43,9.63-42.48,26.41-57.74,17.2-15.63,40.48-24.24,65.54-24.24,62.87,0,101.92,40.96,101.92,106.9,0,7.03-.44,14.58-1.31,22.44l-.85,7.62-41.46,11.69,3.64-18.23c1.01-5.02,2.69-13.43,2.69-33.07,0-23.87-6.46-41.46-19.2-52.28-10.94-9.29-26.64-14.01-46.68-14.01-32.66,0-55.49,20.42-55.49,49.67s44.98,50.3,77.84,65.35c4.4,2.02,8.56,3.92,12.44,5.77,5.1,2.43,10.34,4.71,15.4,6.91,15.43,6.71,30,13.05,41.47,23.51,13.6,12.41,20.22,28.5,20.22,49.21Z"/>
        <path class="cls-1" d="m817.89,353.25l2.21,13.25h-42.85l.61-11.97c.39-7.63-.13-30.4-.68-54.51-.46-20.11-.97-42.39-1.03-59.78h-130.01c-.07,17.51-.58,40.03-1.04,60.36-.55,24.03-1.06,46.72-.68,53.89l.65,12h-42.89l2.21-13.25c2.74-16.43,6.49-97.15,6.49-130.2v-26.59c0-33.03-3.75-113.76-6.49-130.2l-2.21-13.25h42.69l-.45,11.81c-.47,12.45.17,43.76.78,74.04.46,22.48.89,43.73.89,57.59v12.71h130.08v-12.71c0-14.03.44-36.08.9-59.42.61-30.36,1.23-61.75.77-72.15l-.52-11.88h42.77l-2.21,13.25c-2.74,16.43-6.49,97.16-6.49,130.2v26.59c0,33.04,3.75,113.76,6.49,130.2Z"/>
        <path class="cls-1" d="m1016.08,233.26h48.45l-2.23,13.26c-5.94,35.43-18.97,65.17-37.69,86.03-19.93,22.2-45.82,33.94-74.87,33.94-33.06,0-62.66-14.89-83.38-41.94-21.64-28.26-33.08-68.82-33.08-117.28s11.2-88.31,33.28-115.52c20.57-25.34,49.32-38.73,83.18-38.73,29.29,0,55.07,10.54,74.54,30.48,19.28,19.73,32.06,47.75,38.02,83.26l2.23,13.26h-44.97l1.08-12.37c.67-7.72.04-23.87-4.51-34.36l-.12-.3c-7.31-18.26-25.63-48.91-66.27-48.91-24.27,0-43.66,10.74-57.62,31.94-14.36,21.81-21.95,53.35-21.95,91.24s8.77,72.15,25.36,95.96c14.47,20.77,33.72,32.19,54.2,32.19,28.01,0,46.92-15.03,65.22-51.88,5.46-13.35,6.69-31.61,5.71-35.56l-4.6-14.72Z"/>
      </g>
      <g>
        <path class="cls-1" d="m100.88,328.93l.67-33.87,5.02.58c3.19.37,12.76.15,22.89-.08,7.73-.18,16.22-.37,23.2-.33.31-10.96.49-20.75.49-28.25v-28.27c0-35.14-3.99-120.97-6.9-138.45l-2.35-14.09h45.57s-.65,12.72-.65,12.72c-.41,8.11.14,32.33.72,57.96.49,21.39,1.03,45.08,1.1,63.57h.14s0,33.04,0,33.04h-.17v13.51c0,7.81-.13,17.97-.32,29.42,2.46.15,5.01.29,7.59.44,12.73.73,25.91,1.48,30.27,1.21l5-.31-.68,33.8-5.53-1.86c-4.72-1.58-22.22-3.8-37.19-5.12-.03,1.86-.06,3.73-.1,5.6-.65,32.28-1.31,65.67-.81,76.72l.56,12.63h-45.48s2.35-14.09,2.35-14.09c1.79-10.75,3.99-47.33,5.41-82.09-16.04.48-39.53,2.3-45.18,3.95l-5.6,1.64Z"/>
        <path class="cls-1" d="m0,123.84C0,88.68,15.84,57.2,44.6,35.18,74.65,12.17,117.78,0,169.32,0c52.58,0,93.9,11.91,122.84,35.39,26.95,21.87,41.19,52.45,41.19,88.45,0,31.15-11.21,58.56-32.41,79.26-20.99,20.5-50.77,34.1-88.54,40.43l-6.41,2.39v-47.82s5.46,1.13,5.46,1.13c8.21.71,25.38.04,36.53-4.79l.32-.13c19.42-7.77,52.01-27.25,52.01-70.47,0-25.81-11.42-46.42-33.97-61.27-23.19-15.27-56.74-23.34-97.02-23.34s-76.73,9.33-102.05,26.97c-22.08,15.39-34.23,35.85-34.23,57.64,0,29.79,15.98,49.89,55.17,69.35,14.2,5.81,33.61,7.12,37.82,6.08l9.67-4.9v51.52s-8.12-2.36-8.12-2.36c-37.68-6.32-69.31-20.17-91.48-40.07C12.48,182.26,0,154.73,0,123.84Z"/>
      </g>
    </g>
  </g>
</svg>